# AST/ASF file generated using VICON BodyLanguage
# -----------------------------------------------
:version 1.10
:name VICON
:units
  mass 1.0
  length 0.45
  angle deg
:documentation
   .ast/.asf automatically generated from VICON data using
   VICON BodyBuilder and BodyLanguage model FoxedUp or BRILLIANT.MOD
:root
   order TX TY TZ RX RY RZ
   axis XYZ
   position 0 0 0  
   orientation 0 0 0 
:bonedata
  begin
     id 1 
     name lhipjoint
     direction 0.521689 -0.742065 0.420928 
     length 2.47002 
     axis 0 0 0  XYZ
  end
  begin
     id 2 
     name lfemur
     direction 0.34202 -0.939693 0  
     length 7.24654  
     axis 0 0 20  XYZ
    dof rx ry rz
    limits (-160.0 20.0)
           (-70.0 70.0)
           (-60.0 70.0)
  end
  begin
     id 3 
     name ltibia
     direction 0.34202 -0.939693 0   
     length 8.04849   
     axis 0 0 20   XYZ
    dof rx
    limits (-10.0 170.0)
  end
  begin
     id 4 
     name lfoot
     direction 0.0745411 -0.2048 0.975961   
     length 1.72367   
     axis -90 7.62852e-016 20   XYZ
    dof rx rz
    limits (-45.0 90.0)
           (-70.0 20.0)
  end
  begin
     id 5 
     name ltoes
     direction 1.53556e-011 -4.21901e-011 1   
     length 0.87311   
     axis -90 7.62852e-016 20   XYZ
    dof rx
    limits (-90.0 20.0)
  end
  begin
     id 6 
     name rhipjoint
     direction -0.52849 -0.738415 0.418857   
     length 2.48223  
     axis 0 0 0  XYZ 
  end
  begin
     id 7 
     name rfemur
     direction -0.34202 -0.939693 0   
     length 7.15571   
     axis 0 0 -20   XYZ
    dof rx ry rz
    limits (-160.0 20.0)
           (-70.0 70.0)
           (-70.0 60.0)
  end
  begin
     id 8 
     name rtibia
     direction -0.34202 -0.939693 0   
     length 7.81659   
     axis 0 0 -20   XYZ
    dof rx
    limits (-10.0 170.0)
 end
 begin
     id 9 
     name rfoot
     direction -0.0917348 -0.252039 0.963359   
     length 1.84382  
     axis -90 -7.62852e-016 -20   XYZ
    dof rx rz
    limits (-45.0 90.0)
           (-20.0 70.0)
  end
  begin
     id 10 
     name rtoes
     direction -1.53551e-011 -4.21879e-011 1   
     length 0.927771   
     axis -90 -7.62852e-016 -20   XYZ
    dof rx
    limits (-90.0 20.0)
  end
  begin
     id 11 
     name lowerback
     direction 0.00583058 0.999822 0.0179296   
     length 2.1429   
     axis 0 0 0   XYZ
    dof rx ry rz
    limits (-20.0 45.0)
           (-30.0 30.0)
           (-30.0 30.0)
  end
  begin
     id 12 
     name upperback
     direction -0.0137999 0.999752 -0.0175071   
     length 2.14252   
     axis 0 0 0   XYZ
    dof rx ry rz
    limits (-20.0 45.0)
           (-30.0 30.0)
           (-30.0 30.0)
  end
  begin
     id 13 
     name thorax
     direction -0.0158036 0.99955 -0.0254909   
     length 2.1383   
     axis 0 0 0   XYZ
    dof rx ry rz
    limits (-20.0 45.0)
           (-30.0 30.0)
           (-30.0 30.0)
  end
  begin
     id 14 
     name lowerneck
     direction -0.0101179 0.999403 -0.0330262   
     length 1.65808   
     axis 0 0 0   XYZ
    dof rx ry rz
    limits (-20.0 45.0)
           (-30.0 30.0)
           (-30.0 30.0)
  end
  begin
     id 15 
     name upperneck
     direction 0.0497734 0.995978 -0.074501   
     length 1.5897   
     axis 0 0 0   XYZ
    dof rx ry rz
    limits (-20.0 45.0)
           (-30.0 30.0)
           (-30.0 30.0)
  end
  begin
     id 16
     name head
     direction 0.0189524 0.999519 -0.0245438  
     length 1.74024  
     axis 0 0 0   XYZ
    dof rx ry rz
    limits (-20.0 45.0)
           (-30.0 30.0)
           (-30.0 30.0)
  end
  begin
     id 17 
     name lclavicle
     direction 0.945604 0.324422 0.0241537  
     length 3.59089  
     axis 0 0 0   XYZ
    dof ry rz
    limits (-20.0 10.0)
           (0.0 20.0)
  end
  begin
     id 18 
     name lhumerus
     direction 1 -4.48964e-011 -2.63524e-027   
     length 5.2391   
     axis 180 -30 -90   XYZ
    dof rx ry rz
    limits (-60.0 90.0)
           (-90.0 90.0)
           (-90.0 90.0)
  end
  begin
     id 19
     name lradius
     direction 1 -4.48969e-011 3.86978e-028   
     length 3.31467   
     axis 180 -30 -90   XYZ
    dof rx
    limits (-10.0 170.0)
  end
  begin
     id 20
     name lwrist
     direction 1 -4.48963e-011 7.20928e-028   
     length 1.65734   
     axis -5.52449e-016 90 90   XYZ
    dof ry
    limits (-180.0 0.0)
 end
  begin
     id 21 
     name lhand
     direction 1 -4.48964e-011 1.44186e-027   
     length 0.9659   
     axis -9.20027e-016 90 90   XYZ
    dof rx rz
    limits (-90.0 90.0)
           (-45.0 45.0)
  end
  begin
     id 22 
     name lfingers
     direction 1 -4.48965e-011 2.88371e-027   
     length 0.778733   
     axis -1.84005e-015 90 90   XYZ
    dof rx
    limits (0.0 90.0)
  end
  begin
     id 23
     name lthumb
     direction 0.707107 -6.34931e-011 0.707107   
     length 1.11811   
     axis -90 45 2.85299e-015   XYZ
    dof rx rz
    limits (-45.0 45.0)
           (-45.0 45.0)
  end
  begin
     id 24 
     name rclavicle
     direction -0.923762 0.370785 0.0958234   
     length 3.54196  
     axis 0 0 0   XYZ 
    dof ry rz
    limits (-10.0 20.0)
           (-20.0 0.0)
  end
  begin
     id 25 
     name rhumerus
     direction -1 -4.48966e-011 1.18702e-017  
     length 5.30252   
     axis 180 30 90   XYZ
    dof rx ry rz
    limits (-90.0 60.0)
           (-90.0 90.0)
           (-90.0 90.0)
  end
  begin
     id 26 
     name rradius
     direction -1 -4.48966e-011 4.46736e-027   
     length 3.67875   
     axis 180 30 90   XYZ
    dof rx
    limits (-10.0 170.0)
  end
  begin
     id 27 
     name rwrist
     direction -1 -4.48966e-011 7.20928e-028   
     length 1.83937   
     axis -5.52449e-016 -90 -90   XYZ
    dof ry
    limits (-180.0 0.0)
  end
  begin
     id 28
     name rhand
     direction -1 -4.48973e-011 1.44186e-027   
     length 0.594811   
     axis -9.20027e-016 -90 -90   XYZ
    dof rx rz
    limits (-90.0 90.0)
           (-45.0 45.0)
  end
  begin
     id 29
     name rfingers
     direction -1 -4.48963e-011 2.88371e-027   
     length 0.479552   
     axis -1.84005e-015 -90 -90   XYZ
    dof rx
    limits (0.0 90.0)
  end
  begin
     id 30
     name rthumb
     direction -0.707107 -6.34932e-011 0.707107   
     length 0.688544   
     axis -90 -45 -2.85299e-015   XYZ
    dof rx rz
    limits (-45.0 45.0)
           (-45.0 45.0)
  end
:hierarchy
  begin
    root lhipjoint rhipjoint lowerback
    lhipjoint lfemur
    lfemur ltibia
    ltibia lfoot
    lfoot ltoes
    rhipjoint rfemur
    rfemur rtibia
    rtibia rfoot
    rfoot rtoes
    lowerback upperback
    upperback thorax
    thorax lowerneck lclavicle rclavicle
    lowerneck upperneck
    upperneck head
    lclavicle lhumerus
    lhumerus lradius
    lradius lwrist
    lwrist lhand lthumb
    lhand lfingers
    rclavicle rhumerus
    rhumerus rradius
    rradius rwrist
    rwrist rhand rthumb
    rhand rfingers
  end

#!OML:ASF E:\acrobat2\Project_11_07_03\Capture day 1\Session 1\Acrobat.ASF
:FULLY-SPECIFIED
:DEGREES
331
root 10.9289 5.06219 10.8773 -99.7223 -3.56241 -0.6202
lowerback 17.0729 0.681005 3.756
upperback 0.761784 1.3772 -3.1346
thorax -8.60643 0.454859 -5.88533
lowerneck -3.73384 -0.188365 -1.19403
upperneck 0.222568 -0.364633 10.9666
head 0.757814 -0.0576452 3.76886
rclavicle -1.82882e-014 -9.08197e-015
rhumerus -45.1015 -19.104 -35.4889
rradius 116.158
rwrist -27.1033
rhand -30.8717 -47.8206
rfingers 7.12502
rthumb -4.15927 282.24
lclavicle -1.82882e-014 -9.08197e-015
lhumerus -27.7555 50.7667 17.4205
lradius 102.786
lwrist 40.0622
lhand -32.7137 -12.5124
lfingers 7.12502
lthumb -5.93783 17.3844
rfemur 15.7994 1.10677 6.2597
rtibia 6.04305e-014
rfoot -24.128 -23.3678
rtoes 45.0669
lfemur 2.07915 -1.94674 1.97649
ltibia 23.4831
lfoot -11.3655 10.8682
ltoes 34.6746
332
root 10.9275 5.06162 10.8736 -99.4596 -3.46229 -0.660139
lowerback 16.7906 0.693884 3.59577
upperback 0.710074 1.35468 -3.13828
thorax -8.51164 0.452248 -5.78113
lowerneck -3.84303 -0.172929 -1.25024
upperneck 0.319092 -0.353536 11.0232
head 0.808316 -0.0452562 3.80136
rclavicle 7.15625e-015 -7.04443e-015
rhumerus -45.0181 -19.1243 -35.5026
rradius 116.172
rwrist -27.1069
rhand -30.8551 -47.8366
rfingers 7.12502
rthumb -4.14325 282.224
lclavicle 7.15625e-015 -7.04443e-015
lhumerus -27.8364 50.7095 17.3921
lradius 102.868
lwrist 40.0918
lhand -33.1118 -12.0328
lfingers 7.12502
lthumb -6.32213 17.8528
rfemur 15.5326 1.02479 6.13606
rtibia -1.43125e-014
rfoot -24.1663 -23.3679
rtoes 45.204
lfemur 1.7789 -1.95504 1.85523
ltibia 23.5327
lfoot -9.60822 10.8148
ltoes 32.7551
333
root 10.9267 5.06169 10.8694 -99.4204 -3.4445 -0.662879
lowerback 16.7398 0.694901 3.55568
upperback 0.711525 1.34834 -3.12246
thorax -8.48366 0.452082 -5.73688
lowerneck -4.10554 -0.116675 -1.27561
upperneck 0.588604 -0.308326 11.0896
head 0.939619 -0.00541264 3.83471
rclavicle -4.69132e-014 3.55328e-014
rhumerus -44.9475 -19.119 -35.5023
rradius 116.201
rwrist -27.1267
rhand -30.9112 -47.9636
rfingers 7.12502
rthumb -4.19739 282.098
lclavicle -4.69132e-014 3.55328e-014
lhumerus -27.8775 50.6409 17.4028
lradius 102.892
lwrist 40.1123
lhand -33.4559 -11.8635
lfingers 7.12502
lthumb -6.65436 18.012
rfemur 15.4925 1.01503 6.12038
rtibia 5.00937e-014
rfoot -24.1931 -23.3624
rtoes 45.1791
lfemur 1.7111 -1.80432 1.8408
ltibia 23.609
lfoot -8.63472 10.8858
ltoes 29.702
334
root 10.9261 5.06125 10.8653 -99.4341 -3.43901 -0.677414
lowerback 16.7484 0.686634 3.54893
upperback 0.73498 1.33633 -3.12236
thorax -8.4644 0.447676 -5.72961
lowerneck -4.32866 -0.0939987 -1.27958
upperneck 0.778471 -0.300863 11.1343
head 1.04084 0.0117593 3.85498
rclavicle -1.27222e-014 2.24875e-015
rhumerus -44.894 -19.12 -35.5084
rradius 116.252
rwrist -27.2124
rhand -31.002 -48.0632
rfingers 7.12502
rthumb -4.28503 282
lclavicle -1.27222e-014 2.24875e-015
lhumerus -27.9135 50.5764 17.3975
lradius 102.91
lwrist 40.1236
lhand -33.6551 -12.0078
lfingers 7.12502
lthumb -6.8466 17.8615
rfemur 15.5085 1.00457 6.11789
rtibia -7.95139e-016
rfoot -24.1863 -23.3517
rtoes 45.1748
lfemur 1.70652 -1.68397 1.83783
ltibia 23.649
lfoot -8.33142 10.9892
ltoes 27.8864
335
root 10.9257 5.06121 10.8673 -99.5262 -3.49796 -0.686493
lowerback 16.8483 0.665668 3.60299
upperback 0.767922 1.32348 -3.09937
thorax -8.48513 0.439804 -5.73562
lowerneck -4.31199 -0.148254 -1.22451
upperneck 0.705464 -0.366136 10.992
head 1.01718 -0.0256225 3.79145
rclavicle 2.94201e-014 -4.12602e-014
rhumerus -44.8603 -19.1324 -35.5095
rradius 116.302
rwrist -27.2494
rhand -30.9636 -48.0642
rfingers 7.12502
rthumb -4.24797 281.998
lclavicle 2.94201e-014 -4.12602e-014
lhumerus -27.9771 50.4863 17.3746
lradius 102.953
lwrist 40.1827
lhand -33.8495 -12.2663
lfingers 7.12502
lthumb -7.03429 17.5968
rfemur 15.6159 1.00903 6.17582
rtibia 5.56597e-015
rfoot -24.1862 -23.3188
rtoes 45.229
lfemur 1.7707 -1.67648 1.91674
ltibia 23.6886
lfoot -9.01226 10.9261
ltoes 29.8103
336
root 10.9263 5.06254 10.8724 -99.8064 -3.65317 -0.629694
lowerback 17.1332 0.645751 3.77841
upperback 0.836961 1.34431 -3.04552
thorax -8.56341 0.443154 -5.79225
lowerneck -4.26048 -0.20292 -1.15299
upperneck 0.616201 -0.429974 10.8196
head 0.981444 -0.0641215 3.71394
rclavicle -1.82882e-014 -1.61513e-015
rhumerus -44.8662 -19.1168 -35.4936
rradius 116.346
rwrist -27.2324
rhand -30.9177 -48.0445
rfingers 7.12502
rthumb -4.20364 282.017
lclavicle -1.82882e-014 -1.61513e-015
lhumerus -27.9625 50.3783 17.4293
lradius 102.995
lwrist 40.2397
lhand -33.804 -12.7703
lfingers 7.12502
lthumb -6.99033 17.0943
rfemur 15.9173 1.10388 6.34734
rtibia -7.15625e-015
rfoot -24.2161 -23.2574
rtoes 45.3281
lfemur 2.06937 -1.68066 2.11643
ltibia 23.6907
lfoot -10.9361 10.8736
ltoes 33.2341
337
root 10.9256 5.06064 10.868 -99.5906 -3.56684 -0.667153
lowerback 16.9162 0.658874 3.69148
upperback 0.793858 1.33543 -3.07992
thorax -8.49171 0.442976 -5.7701
lowerneck -4.31111 -0.219607 -1.14593
upperneck 0.626083 -0.454567 10.814
head 0.995244 -0.074644 3.71049
rclavicle -2.14687e-014 4.05272e-014
rhumerus -44.8701 -19.1267 -35.4942
rradius 116.385
rwrist -27.2595
rhand -30.8814 -48.1457
rfingers 7.12502
rthumb -4.16863 281.915
lclavicle -2.14687e-014 4.05272e-014
lhumerus -27.879 50.3914 17.4969
lradius 103.019
lwrist 40.1526
lhand -33.4318 -13.2251
lfingers 7.12502
lthumb -6.63104 16.6511
rfemur 15.6952 1.03353 6.23969
rtibia -2.38542e-015
rfoot -24.2324 -23.2442
rtoes 45.4613
lfemur 1.8405 -1.82522 1.98398
ltibia 23.6584
lfoot -9.0716 10.945
ltoes 29.5101
338
root 10.9249 5.05889 10.8714 -99.5874 -3.56057 -0.695417
lowerback 16.9125 0.657997 3.73262
upperback 0.811427 1.3395 -3.11341
thorax -8.46825 0.443871 -5.83092
lowerneck -4.37015 -0.256262 -1.16717
upperneck 0.649621 -0.50708 10.8577
head 1.01753 -0.0977251 3.72944
rclavicle -1.98785e-014 -3.28243e-014
rhumerus -44.898 -19.2018 -35.4874
rradius 116.416
rwrist -27.2682
rhand -30.8187 -48.3315
rfingers 7.12502
rthumb -4.10804 281.728
lclavicle -1.98785e-014 -3.28243e-014
lhumerus -27.6816 50.3848 17.6173
lradius 103.009
lwrist 39.9637
lhand -33.5377 -13.022
lfingers 7.12502
lthumb -6.73331 16.8509
rfemur 15.6917 1.00611 6.23345
rtibia 3.33958e-014
rfoot -24.2322 -23.2627
rtoes 45.3919
lfemur 1.83741 -1.93268 1.97138
ltibia 23.6019
lfoot -9.21479 10.9037
ltoes 30.6358
339
root 10.9251 5.0594 10.8822 -99.9424 -3.72364 -0.646235
lowerback 17.2825 0.659647 4.0132
upperback 0.901994 1.40976 -3.10509
thorax -8.56027 0.466373 -6.01341
lowerneck -4.40423 -0.331533 -1.34551
upperneck 0.665601 -0.60554 11.0552
head 1.03899 -0.142914 3.83218
rclavicle 1.03368e-014 -5.14355e-015
rhumerus -45.0198 -19.3178 -35.4092
rradius 116.442
rwrist -27.1879
rhand -30.7718 -48.4049
rfingers 7.12502
rthumb -4.06279 281.654
lclavicle 1.03368e-014 -5.14355e-015
lhumerus -27.1683 50.2674 17.9662
lradius 102.907
lwrist 39.7728
lhand -33.5845 -13.2651
lfingers 7.12502
lthumb -6.77844 16.6063
rfemur 16.0588 1.10631 6.42859
rtibia -1.98785e-014
rfoot -24.2377 -23.2678
rtoes 45.2307
lfemur 2.22117 -1.94887 2.19328
ltibia 23.5738
lfoot -11.3536 10.7507
ltoes 34.5066
340
root 10.9239 5.05854 10.8788 -99.7163 -3.64725 -0.661286
lowerback 17.0146 0.58868 3.64178
upperback 0.890085 1.23973 -3.01757
thorax -8.45557 0.402832 -5.65109
lowerneck -4.47523 -0.23534 -1.21535
upperneck 0.626564 -0.476872 10.8674
head 1.02729 -0.08068 3.74337
rclavicle 3.97569e-015 -3.60297e-016
rhumerus -44.4997 -19.1455 -35.6634
rradius 116.402
rwrist -27.1059
rhand -30.7232 -48.4494
rfingers 7.12502
rthumb -4.01583 281.609
lclavicle 3.97569e-015 -3.60297e-016
lhumerus -28.6168 50.4251 17.0538
lradius 103.191
lwrist 40.0011
lhand -33.7293 -13.593
lfingers 7.12502
lthumb -6.91825 16.274
rfemur 15.8149 1.05257 6.33846
rtibia 2.38542e-015
rfoot -24.2189 -23.2809
rtoes 45.2742
lfemur 1.98142 -1.95098 2.09943
ltibia 23.5901
lfoot -10.1681 10.7008
ltoes 33.3037
